<?xml version="1.0" encoding="UTF-8" standalone="no"?>
<!DOCTYPE svg PUBLIC "-//W3C//DTD SVG 1.1//EN"
 "http://www.w3.org/Graphics/SVG/1.1/DTD/svg11.dtd">
<!-- Generated by graphviz version 2.47.0 (20210316.0004)
 -->
<!-- Title: dependencies Pages: 1 -->
<svg width="1056pt" height="284pt"
 viewBox="0.00 0.00 1056.00 284.00" xmlns="http://www.w3.org/2000/svg" xmlns:xlink="http://www.w3.org/1999/xlink">
<g id="graph0" class="graph" transform="scale(1 1) rotate(0) translate(4 280)">
<title>dependencies</title>
<polygon fill="white" stroke="transparent" points="-4,4 -4,-280 1052,-280 1052,4 -4,4"/>
<text text-anchor="start" x="503.01" y="-42.4" font-family="Times-12" font-weight="bold" font-size="14.00">Legend</text>
<polygon fill="#ffffb3" stroke="transparent" points="290,-10 290,-30 310,-30 310,-10 290,-10"/>
<text text-anchor="start" x="313.63" y="-15.4" font-family="Times-12" font-size="14.00"> &#160;Declarations</text>
<polygon fill="#8dd3c7" stroke="transparent" points="403,-10 403,-30 423,-30 423,-10 403,-10"/>
<text text-anchor="start" x="426.73" y="-15.4" font-family="Times-12" font-size="14.00"> &#160;Module</text>
<polygon fill="#80b1d3" stroke="transparent" points="489,-10 489,-30 509,-30 509,-10 489,-10"/>
<text text-anchor="start" x="512.78" y="-15.4" font-family="Times-12" font-size="14.00"> &#160;Bootstrap</text>
<polygon fill="#fdb462" stroke="transparent" points="586,-10 586,-30 606,-30 606,-10 586,-10"/>
<text text-anchor="start" x="609.67" y="-15.4" font-family="Times-12" font-size="14.00"> &#160;Providers</text>
<polygon fill="#fb8072" stroke="transparent" points="682,-10 682,-30 702,-30 702,-10 682,-10"/>
<text text-anchor="start" x="705.73" y="-15.4" font-family="Times-12" font-size="14.00"> &#160;Exports</text>
<g id="clust1" class="cluster">
<title>cluster_SharedModule</title>
<polygon fill="none" stroke="black" stroke-dasharray="1,5" points="8,-70 8,-268 1040,-268 1040,-70 8,-70"/>
</g>
<g id="clust2" class="cluster">
<title>cluster_SharedModule_declarations</title>
<polygon fill="none" stroke="black" points="33,-78 33,-130 1026,-130 1026,-78 33,-78"/>
</g>
<g id="clust11" class="cluster">
<title>cluster_SharedModule_exports</title>
<polygon fill="none" stroke="black" points="16,-208 16,-260 1032,-260 1032,-208 16,-208"/>
</g>
<!-- ButtonDirective -->
<g id="node1" class="node">
<title>ButtonDirective</title>
<polygon fill="#ffffb3" stroke="black" points="1018.2,-122 911.8,-122 911.8,-86 1018.2,-86 1018.2,-122"/>
<text text-anchor="middle" x="965" y="-99.8" font-family="Times,serif" font-size="14.00">ButtonDirective</text>
</g>
<!-- SharedModule -->
<g id="node8" class="node">
<title>SharedModule</title>
<polygon fill="#8dd3c7" stroke="black" points="609.42,-187 606.42,-191 585.42,-191 582.42,-187 510.58,-187 510.58,-151 609.42,-151 609.42,-187"/>
<text text-anchor="middle" x="560" y="-164.8" font-family="Times,serif" font-size="14.00">SharedModule</text>
</g>
<!-- ButtonDirective&#45;&gt;SharedModule -->
<g id="edge1" class="edge">
<title>ButtonDirective&#45;&gt;SharedModule</title>
<path fill="none" stroke="black" d="M983.45,-122.22C983.45,-140.83 983.45,-167 983.45,-167 983.45,-167 619.4,-167 619.4,-167"/>
<polygon fill="black" stroke="black" points="619.4,-163.5 609.4,-167 619.4,-170.5 619.4,-163.5"/>
</g>
<!-- ItemDirective -->
<g id="node2" class="node">
<title>ItemDirective</title>
<polygon fill="#ffffb3" stroke="black" points="893.74,-122 800.26,-122 800.26,-86 893.74,-86 893.74,-122"/>
<text text-anchor="middle" x="847" y="-99.8" font-family="Times,serif" font-size="14.00">ItemDirective</text>
</g>
<!-- ItemDirective&#45;&gt;SharedModule -->
<g id="edge2" class="edge">
<title>ItemDirective&#45;&gt;SharedModule</title>
<path fill="none" stroke="black" d="M862.62,-122.03C862.62,-139.06 862.62,-162 862.62,-162 862.62,-162 619.3,-162 619.3,-162"/>
<polygon fill="black" stroke="black" points="619.3,-158.5 609.3,-162 619.3,-165.5 619.3,-158.5"/>
</g>
<!-- NumberFormatPipe -->
<g id="node3" class="node">
<title>NumberFormatPipe</title>
<polygon fill="#ffffb3" stroke="black" points="782.7,-122 655.3,-122 655.3,-86 782.7,-86 782.7,-122"/>
<text text-anchor="middle" x="719" y="-99.8" font-family="Times,serif" font-size="14.00">NumberFormatPipe</text>
</g>
<!-- NumberFormatPipe&#45;&gt;SharedModule -->
<g id="edge3" class="edge">
<title>NumberFormatPipe&#45;&gt;SharedModule</title>
<path fill="none" stroke="black" d="M697.38,-122.24C697.38,-137.57 697.38,-157 697.38,-157 697.38,-157 619.6,-157 619.6,-157"/>
<polygon fill="black" stroke="black" points="619.6,-153.5 609.6,-157 619.6,-160.5 619.6,-153.5"/>
</g>
<!-- SelectedCardDirective -->
<g id="node4" class="node">
<title>SelectedCardDirective</title>
<polygon fill="#ffffb3" stroke="black" points="637.22,-122 494.78,-122 494.78,-86 637.22,-86 637.22,-122"/>
<text text-anchor="middle" x="566" y="-99.8" font-family="Times,serif" font-size="14.00">SelectedCardDirective</text>
</g>
<!-- SelectedCardDirective&#45;&gt;SharedModule -->
<g id="edge4" class="edge">
<title>SelectedCardDirective&#45;&gt;SharedModule</title>
<path fill="none" stroke="black" d="M560,-122.11C560,-122.11 560,-140.99 560,-140.99"/>
<polygon fill="black" stroke="black" points="556.5,-140.99 560,-150.99 563.5,-140.99 556.5,-140.99"/>
</g>
<!-- ToolbarComponent -->
<g id="node5" class="node">
<title>ToolbarComponent</title>
<polygon fill="#ffffb3" stroke="black" points="476.65,-122 351.35,-122 351.35,-86 476.65,-86 476.65,-122"/>
<text text-anchor="middle" x="414" y="-99.8" font-family="Times,serif" font-size="14.00">ToolbarComponent</text>
</g>
<!-- ToolbarComponent&#45;&gt;SharedModule -->
<g id="edge5" class="edge">
<title>ToolbarComponent&#45;&gt;SharedModule</title>
<path fill="none" stroke="black" d="M472.7,-122.19C472.7,-137.18 472.7,-156 472.7,-156 472.7,-156 500.74,-156 500.74,-156"/>
<polygon fill="black" stroke="black" points="500.74,-159.5 510.74,-156 500.74,-152.5 500.74,-159.5"/>
</g>
<!-- UpperCamelCasePipe -->
<g id="node6" class="node">
<title>UpperCamelCasePipe</title>
<polygon fill="#ffffb3" stroke="black" points="332.63,-122 193.37,-122 193.37,-86 332.63,-86 332.63,-122"/>
<text text-anchor="middle" x="263" y="-99.8" font-family="Times,serif" font-size="14.00">UpperCamelCasePipe</text>
</g>
<!-- UpperCamelCasePipe&#45;&gt;SharedModule -->
<g id="edge6" class="edge">
<title>UpperCamelCasePipe&#45;&gt;SharedModule</title>
<path fill="none" stroke="black" d="M325.31,-122.3C325.31,-140.27 325.31,-165 325.31,-165 325.31,-165 500.52,-165 500.52,-165"/>
<polygon fill="black" stroke="black" points="500.52,-168.5 510.52,-165 500.52,-161.5 500.52,-168.5"/>
</g>
<!-- UpperCamelCasePipe&#45;&gt;SharedModule -->
<g id="edge7" class="edge">
<title>UpperCamelCasePipe&#45;&gt;SharedModule</title>
<path fill="none" stroke="black" d="M329.06,-122.03C329.06,-138.4 329.06,-160 329.06,-160 329.06,-160 500.74,-160 500.74,-160"/>
<polygon fill="black" stroke="black" points="500.74,-163.5 510.74,-160 500.74,-156.5 500.74,-163.5"/>
</g>
<!-- UserItemComponent -->
<g id="node7" class="node">
<title>UserItemComponent</title>
<polygon fill="#ffffb3" stroke="black" points="174.92,-122 41.08,-122 41.08,-86 174.92,-86 174.92,-122"/>
<text text-anchor="middle" x="108" y="-99.8" font-family="Times,serif" font-size="14.00">UserItemComponent</text>
</g>
<!-- UserItemComponent&#45;&gt;SharedModule -->
<g id="edge8" class="edge">
<title>UserItemComponent&#45;&gt;SharedModule</title>
<path fill="none" stroke="black" d="M167.58,-122.11C167.58,-141.34 167.58,-169 167.58,-169 167.58,-169 500.7,-169 500.7,-169"/>
<polygon fill="black" stroke="black" points="500.7,-172.5 510.7,-169 500.7,-165.5 500.7,-172.5"/>
</g>
<!-- ButtonDirective  -->
<g id="node9" class="node">
<title>ButtonDirective </title>
<polygon fill="#fb8072" stroke="black" points="1023.7,-252 914.3,-252 914.3,-216 1023.7,-216 1023.7,-252"/>
<text text-anchor="middle" x="969" y="-229.8" font-family="Times,serif" font-size="14.00">ButtonDirective </text>
</g>
<!-- SharedModule&#45;&gt;ButtonDirective  -->
<g id="edge9" class="edge">
<title>SharedModule&#45;&gt;ButtonDirective </title>
<path fill="none" stroke="black" stroke-dasharray="5,2" d="M609.24,-172C713.86,-172 948.8,-172 948.8,-172 948.8,-172 948.8,-205.73 948.8,-205.73"/>
<polygon fill="black" stroke="black" points="945.3,-205.73 948.8,-215.73 952.3,-205.73 945.3,-205.73"/>
</g>
<!-- ItemDirective  -->
<g id="node10" class="node">
<title>ItemDirective </title>
<polygon fill="#fb8072" stroke="black" points="896.74,-252 799.26,-252 799.26,-216 896.74,-216 896.74,-252"/>
<text text-anchor="middle" x="848" y="-229.8" font-family="Times,serif" font-size="14.00">ItemDirective </text>
</g>
<!-- SharedModule&#45;&gt;ItemDirective  -->
<g id="edge10" class="edge">
<title>SharedModule&#45;&gt;ItemDirective </title>
<path fill="none" stroke="black" stroke-dasharray="5,2" d="M609.46,-177C687.73,-177 831.38,-177 831.38,-177 831.38,-177 831.38,-205.96 831.38,-205.96"/>
<polygon fill="black" stroke="black" points="827.88,-205.96 831.38,-215.96 834.88,-205.96 827.88,-205.96"/>
</g>
<!-- NumberFormatPipe  -->
<g id="node11" class="node">
<title>NumberFormatPipe </title>
<polygon fill="#fb8072" stroke="black" points="781.2,-252 650.8,-252 650.8,-216 781.2,-216 781.2,-252"/>
<text text-anchor="middle" x="716" y="-229.8" font-family="Times,serif" font-size="14.00">NumberFormatPipe </text>
</g>
<!-- SharedModule&#45;&gt;NumberFormatPipe  -->
<g id="edge11" class="edge">
<title>SharedModule&#45;&gt;NumberFormatPipe </title>
<path fill="none" stroke="black" stroke-dasharray="5,2" d="M609.49,-182C662.58,-182 739.37,-182 739.37,-182 739.37,-182 739.37,-205.81 739.37,-205.81"/>
<polygon fill="black" stroke="black" points="735.87,-205.81 739.37,-215.81 742.87,-205.81 735.87,-205.81"/>
</g>
<!-- SelectedCardDirective  -->
<g id="node12" class="node">
<title>SelectedCardDirective </title>
<polygon fill="#fb8072" stroke="black" points="633.22,-252 486.78,-252 486.78,-216 633.22,-216 633.22,-252"/>
<text text-anchor="middle" x="560" y="-229.8" font-family="Times,serif" font-size="14.00">SelectedCardDirective </text>
</g>
<!-- SharedModule&#45;&gt;SelectedCardDirective  -->
<g id="edge12" class="edge">
<title>SharedModule&#45;&gt;SelectedCardDirective </title>
<path fill="none" stroke="black" stroke-dasharray="5,2" d="M560,-187.11C560,-187.11 560,-205.99 560,-205.99"/>
<polygon fill="black" stroke="black" points="556.5,-205.99 560,-215.99 563.5,-205.99 556.5,-205.99"/>
</g>
<!-- ToolbarComponent  -->
<g id="node13" class="node">
<title>ToolbarComponent </title>
<polygon fill="#fb8072" stroke="black" points="468.65,-252 339.35,-252 339.35,-216 468.65,-216 468.65,-252"/>
<text text-anchor="middle" x="404" y="-229.8" font-family="Times,serif" font-size="14.00">ToolbarComponent </text>
</g>
<!-- SharedModule&#45;&gt;ToolbarComponent  -->
<g id="edge13" class="edge">
<title>SharedModule&#45;&gt;ToolbarComponent </title>
<path fill="none" stroke="black" stroke-dasharray="5,2" d="M510.43,-183C466.7,-183 409.88,-183 409.88,-183 409.88,-183 409.88,-205.88 409.88,-205.88"/>
<polygon fill="black" stroke="black" points="406.38,-205.88 409.88,-215.88 413.38,-205.88 406.38,-205.88"/>
</g>
<!-- UpperCamelCasePipe  -->
<g id="node14" class="node">
<title>UpperCamelCasePipe </title>
<polygon fill="#fb8072" stroke="black" points="321.63,-252 178.37,-252 178.37,-216 321.63,-216 321.63,-252"/>
<text text-anchor="middle" x="250" y="-229.8" font-family="Times,serif" font-size="14.00">UpperCamelCasePipe </text>
</g>
<!-- SharedModule&#45;&gt;UpperCamelCasePipe  -->
<g id="edge14" class="edge">
<title>SharedModule&#45;&gt;UpperCamelCasePipe </title>
<path fill="none" stroke="black" stroke-dasharray="5,2" d="M510.7,-178C424.95,-178 257.38,-178 257.38,-178 257.38,-178 257.38,-205.97 257.38,-205.97"/>
<polygon fill="black" stroke="black" points="253.88,-205.97 257.38,-215.97 260.88,-205.97 253.88,-205.97"/>
</g>
<!-- UserItemComponent  -->
<g id="node15" class="node">
<title>UserItemComponent </title>
<polygon fill="#fb8072" stroke="black" points="160.42,-252 23.58,-252 23.58,-216 160.42,-216 160.42,-252"/>
<text text-anchor="middle" x="92" y="-229.8" font-family="Times,serif" font-size="14.00">UserItemComponent </text>
</g>
<!-- SharedModule&#45;&gt;UserItemComponent  -->
<g id="edge15" class="edge">
<title>SharedModule&#45;&gt;UserItemComponent </title>
<path fill="none" stroke="black" stroke-dasharray="5,2" d="M510.43,-174C391.71,-174 100.88,-174 100.88,-174 100.88,-174 100.88,-206 100.88,-206"/>
<polygon fill="black" stroke="black" points="97.38,-206 100.88,-216 104.38,-206 97.38,-206"/>
</g>
</g>
</svg>
