<?xml version="1.0" encoding="UTF-8" standalone="no"?>
<!DOCTYPE svg PUBLIC "-//W3C//DTD SVG 1.1//EN"
 "http://www.w3.org/Graphics/SVG/1.1/DTD/svg11.dtd">
<!-- Generated by graphviz version 2.47.0 (20210316.0004)
 -->
<!-- Title: dependencies Pages: 1 -->
<svg width="1723pt" height="211pt"
 viewBox="0.00 0.00 1723.00 211.00" xmlns="http://www.w3.org/2000/svg" xmlns:xlink="http://www.w3.org/1999/xlink">
<g id="graph0" class="graph" transform="scale(1 1) rotate(0) translate(4 207)">
<title>dependencies</title>
<polygon fill="white" stroke="transparent" points="-4,4 -4,-207 1719,-207 1719,4 -4,4"/>
<text text-anchor="start" x="836.51" y="-42.4" font-family="Times-12" font-weight="bold" font-size="14.00">Legend</text>
<polygon fill="#ffffb3" stroke="transparent" points="623.5,-10 623.5,-30 643.5,-30 643.5,-10 623.5,-10"/>
<text text-anchor="start" x="647.13" y="-15.4" font-family="Times-12" font-size="14.00"> &#160;Declarations</text>
<polygon fill="#8dd3c7" stroke="transparent" points="736.5,-10 736.5,-30 756.5,-30 756.5,-10 736.5,-10"/>
<text text-anchor="start" x="760.23" y="-15.4" font-family="Times-12" font-size="14.00"> &#160;Module</text>
<polygon fill="#80b1d3" stroke="transparent" points="822.5,-10 822.5,-30 842.5,-30 842.5,-10 822.5,-10"/>
<text text-anchor="start" x="846.28" y="-15.4" font-family="Times-12" font-size="14.00"> &#160;Bootstrap</text>
<polygon fill="#fdb462" stroke="transparent" points="919.5,-10 919.5,-30 939.5,-30 939.5,-10 919.5,-10"/>
<text text-anchor="start" x="943.17" y="-15.4" font-family="Times-12" font-size="14.00"> &#160;Providers</text>
<polygon fill="#fb8072" stroke="transparent" points="1015.5,-10 1015.5,-30 1035.5,-30 1035.5,-10 1015.5,-10"/>
<text text-anchor="start" x="1039.23" y="-15.4" font-family="Times-12" font-size="14.00"> &#160;Exports</text>
<g id="clust1" class="cluster">
<title>cluster_HomePageModule</title>
<polygon fill="none" stroke="black" stroke-dasharray="1,5" points="8,-70 8,-195 1707,-195 1707,-70 8,-70"/>
</g>
<g id="clust10" class="cluster">
<title>cluster_HomePageModule_imports</title>
<polygon fill="none" stroke="black" points="1401,-78 1401,-130 1699,-130 1699,-78 1401,-78"/>
</g>
<g id="clust13" class="cluster">
<title>cluster_HomePageModule_providers</title>
<polygon fill="none" stroke="black" points="1213,-78 1213,-130 1393,-130 1393,-78 1213,-78"/>
</g>
<g id="clust2" class="cluster">
<title>cluster_HomePageModule_declarations</title>
<polygon fill="none" stroke="black" points="16,-78 16,-130 1205,-130 1205,-78 16,-78"/>
</g>
<!-- HomePage -->
<g id="node1" class="node">
<title>HomePage</title>
<polygon fill="#ffffb3" stroke="black" points="1196.92,-122 1119.08,-122 1119.08,-86 1196.92,-86 1196.92,-122"/>
<text text-anchor="middle" x="1158" y="-99.8" font-family="Times,serif" font-size="14.00">HomePage</text>
</g>
<!-- HomePageModule -->
<g id="node8" class="node">
<title>HomePageModule</title>
<polygon fill="#8dd3c7" stroke="black" points="946.47,-187 943.47,-191 922.47,-191 919.47,-187 825.53,-187 825.53,-151 946.47,-151 946.47,-187"/>
<text text-anchor="middle" x="886" y="-164.8" font-family="Times,serif" font-size="14.00">HomePageModule</text>
</g>
<!-- HomePage&#45;&gt;HomePageModule -->
<g id="edge1" class="edge">
<title>HomePage&#45;&gt;HomePageModule</title>
<path fill="none" stroke="black" d="M1158,-122.01C1158,-138.05 1158,-159 1158,-159 1158,-159 956.7,-159 956.7,-159"/>
<polygon fill="black" stroke="black" points="956.7,-155.5 946.7,-159 956.7,-162.5 956.7,-155.5"/>
</g>
<!-- ProviderItemSelectableComponent -->
<g id="node2" class="node">
<title>ProviderItemSelectableComponent</title>
<polygon fill="#ffffb3" stroke="black" points="1101.23,-122 888.77,-122 888.77,-86 1101.23,-86 1101.23,-122"/>
<text text-anchor="middle" x="995" y="-99.8" font-family="Times,serif" font-size="14.00">ProviderItemSelectableComponent</text>
</g>
<!-- ProviderItemSelectableComponent&#45;&gt;HomePageModule -->
<g id="edge2" class="edge">
<title>ProviderItemSelectableComponent&#45;&gt;HomePageModule</title>
<path fill="none" stroke="black" d="M917.56,-122.11C917.56,-122.11 917.56,-140.99 917.56,-140.99"/>
<polygon fill="black" stroke="black" points="914.06,-140.99 917.56,-150.99 921.06,-140.99 914.06,-140.99"/>
</g>
<!-- ProviderSelectableComponent -->
<g id="node3" class="node">
<title>ProviderSelectableComponent</title>
<polygon fill="#ffffb3" stroke="black" points="870.57,-122 683.43,-122 683.43,-86 870.57,-86 870.57,-122"/>
<text text-anchor="middle" x="777" y="-99.8" font-family="Times,serif" font-size="14.00">ProviderSelectableComponent</text>
</g>
<!-- ProviderSelectableComponent&#45;&gt;HomePageModule -->
<g id="edge3" class="edge">
<title>ProviderSelectableComponent&#45;&gt;HomePageModule</title>
<path fill="none" stroke="black" d="M848.02,-122.11C848.02,-122.11 848.02,-140.99 848.02,-140.99"/>
<polygon fill="black" stroke="black" points="844.52,-140.99 848.02,-150.99 851.52,-140.99 844.52,-140.99"/>
</g>
<!-- SpentFormComponent -->
<g id="node4" class="node">
<title>SpentFormComponent</title>
<polygon fill="#ffffb3" stroke="black" points="665.55,-122 522.45,-122 522.45,-86 665.55,-86 665.55,-122"/>
<text text-anchor="middle" x="594" y="-99.8" font-family="Times,serif" font-size="14.00">SpentFormComponent</text>
</g>
<!-- SpentFormComponent&#45;&gt;HomePageModule -->
<g id="edge4" class="edge">
<title>SpentFormComponent&#45;&gt;HomePageModule</title>
<path fill="none" stroke="black" d="M594,-122.01C594,-138.05 594,-159 594,-159 594,-159 815.5,-159 815.5,-159"/>
<polygon fill="black" stroke="black" points="815.5,-162.5 825.5,-159 815.5,-155.5 815.5,-162.5"/>
</g>
<!-- SpentItemComponent -->
<g id="node5" class="node">
<title>SpentItemComponent</title>
<polygon fill="#ffffb3" stroke="black" points="504.38,-122 365.62,-122 365.62,-86 504.38,-86 504.38,-122"/>
<text text-anchor="middle" x="435" y="-99.8" font-family="Times,serif" font-size="14.00">SpentItemComponent</text>
</g>
<!-- SpentItemComponent&#45;&gt;HomePageModule -->
<g id="edge5" class="edge">
<title>SpentItemComponent&#45;&gt;HomePageModule</title>
<path fill="none" stroke="black" d="M435,-122.27C435,-140.56 435,-166 435,-166 435,-166 815.18,-166 815.18,-166"/>
<polygon fill="black" stroke="black" points="815.18,-169.5 825.18,-166 815.18,-162.5 815.18,-169.5"/>
</g>
<!-- VehicleFormComponent -->
<g id="node6" class="node">
<title>VehicleFormComponent</title>
<polygon fill="#ffffb3" stroke="black" points="347.7,-122 192.3,-122 192.3,-86 347.7,-86 347.7,-122"/>
<text text-anchor="middle" x="270" y="-99.8" font-family="Times,serif" font-size="14.00">VehicleFormComponent</text>
</g>
<!-- VehicleFormComponent&#45;&gt;HomePageModule -->
<g id="edge6" class="edge">
<title>VehicleFormComponent&#45;&gt;HomePageModule</title>
<path fill="none" stroke="black" d="M270,-122.13C270,-142.57 270,-173 270,-173 270,-173 815.25,-173 815.25,-173"/>
<polygon fill="black" stroke="black" points="815.25,-176.5 825.25,-173 815.25,-169.5 815.25,-176.5"/>
</g>
<!-- VehicleItemComponent -->
<g id="node7" class="node">
<title>VehicleItemComponent</title>
<polygon fill="#ffffb3" stroke="black" points="174.02,-122 23.98,-122 23.98,-86 174.02,-86 174.02,-122"/>
<text text-anchor="middle" x="99" y="-99.8" font-family="Times,serif" font-size="14.00">VehicleItemComponent</text>
</g>
<!-- VehicleItemComponent&#45;&gt;HomePageModule -->
<g id="edge7" class="edge">
<title>VehicleItemComponent&#45;&gt;HomePageModule</title>
<path fill="none" stroke="black" d="M99,-122.01C99,-144.49 99,-180 99,-180 99,-180 815.23,-180 815.23,-180"/>
<polygon fill="black" stroke="black" points="815.23,-183.5 825.23,-180 815.23,-176.5 815.23,-183.5"/>
</g>
<!-- HomePageRoutingModule -->
<g id="node9" class="node">
<title>HomePageRoutingModule</title>
<polygon fill="#8dd3c7" stroke="black" points="1691.09,-122 1688.09,-126 1667.09,-126 1664.09,-122 1524.91,-122 1524.91,-86 1691.09,-86 1691.09,-122"/>
<text text-anchor="middle" x="1608" y="-99.8" font-family="Times,serif" font-size="14.00">HomePageRoutingModule</text>
</g>
<!-- HomePageRoutingModule&#45;&gt;HomePageModule -->
<g id="edge8" class="edge">
<title>HomePageRoutingModule&#45;&gt;HomePageModule</title>
<path fill="none" stroke="black" d="M1608,-122.01C1608,-144.49 1608,-180 1608,-180 1608,-180 956.62,-180 956.62,-180"/>
<polygon fill="black" stroke="black" points="956.62,-176.5 946.62,-180 956.62,-183.5 956.62,-176.5"/>
</g>
<!-- SharedModule -->
<g id="node10" class="node">
<title>SharedModule</title>
<polygon fill="#8dd3c7" stroke="black" points="1507.42,-122 1504.42,-126 1483.42,-126 1480.42,-122 1408.58,-122 1408.58,-86 1507.42,-86 1507.42,-122"/>
<text text-anchor="middle" x="1458" y="-99.8" font-family="Times,serif" font-size="14.00">SharedModule</text>
</g>
<!-- SharedModule&#45;&gt;HomePageModule -->
<g id="edge9" class="edge">
<title>SharedModule&#45;&gt;HomePageModule</title>
<path fill="none" stroke="black" d="M1458,-122.13C1458,-142.57 1458,-173 1458,-173 1458,-173 956.67,-173 956.67,-173"/>
<polygon fill="black" stroke="black" points="956.67,-169.5 946.67,-173 956.67,-176.5 956.67,-169.5"/>
</g>
<!-- AuthStrapiService -->
<g id="node11" class="node">
<title>AuthStrapiService</title>
<ellipse fill="#fdb462" stroke="black" cx="1303" cy="-104" rx="82.24" ry="18"/>
<text text-anchor="middle" x="1303" y="-99.8" font-family="Times,serif" font-size="14.00">AuthStrapiService</text>
</g>
<!-- AuthStrapiService&#45;&gt;HomePageModule -->
<g id="edge10" class="edge">
<title>AuthStrapiService&#45;&gt;HomePageModule</title>
<path fill="none" stroke="black" d="M1303,-122.27C1303,-140.56 1303,-166 1303,-166 1303,-166 956.64,-166 956.64,-166"/>
<polygon fill="black" stroke="black" points="956.64,-162.5 946.64,-166 956.64,-169.5 956.64,-162.5"/>
</g>
</g>
</svg>
