<?xml version="1.0" encoding="UTF-8" standalone="no"?>
<!DOCTYPE svg PUBLIC "-//W3C//DTD SVG 1.1//EN"
 "http://www.w3.org/Graphics/SVG/1.1/DTD/svg11.dtd">
<!-- Generated by graphviz version 2.47.0 (20210316.0004)
 -->
<!-- Title: dependencies Pages: 1 -->
<svg width="640pt" height="211pt"
 viewBox="0.00 0.00 640.00 211.00" xmlns="http://www.w3.org/2000/svg" xmlns:xlink="http://www.w3.org/1999/xlink">
<g id="graph0" class="graph" transform="scale(1 1) rotate(0) translate(4 207)">
<title>dependencies</title>
<polygon fill="white" stroke="transparent" points="-4,4 -4,-207 636,-207 636,4 -4,4"/>
<text text-anchor="start" x="295.01" y="-42.4" font-family="Times-12" font-weight="bold" font-size="14.00">Legend</text>
<polygon fill="#ffffb3" stroke="transparent" points="82,-10 82,-30 102,-30 102,-10 82,-10"/>
<text text-anchor="start" x="105.63" y="-15.4" font-family="Times-12" font-size="14.00"> &#160;Declarations</text>
<polygon fill="#8dd3c7" stroke="transparent" points="195,-10 195,-30 215,-30 215,-10 195,-10"/>
<text text-anchor="start" x="218.73" y="-15.4" font-family="Times-12" font-size="14.00"> &#160;Module</text>
<polygon fill="#80b1d3" stroke="transparent" points="281,-10 281,-30 301,-30 301,-10 281,-10"/>
<text text-anchor="start" x="304.78" y="-15.4" font-family="Times-12" font-size="14.00"> &#160;Bootstrap</text>
<polygon fill="#fdb462" stroke="transparent" points="378,-10 378,-30 398,-30 398,-10 378,-10"/>
<text text-anchor="start" x="401.67" y="-15.4" font-family="Times-12" font-size="14.00"> &#160;Providers</text>
<polygon fill="#fb8072" stroke="transparent" points="474,-10 474,-30 494,-30 494,-10 474,-10"/>
<text text-anchor="start" x="497.73" y="-15.4" font-family="Times-12" font-size="14.00"> &#160;Exports</text>
<g id="clust1" class="cluster">
<title>cluster_AboutMePageModule</title>
<polygon fill="none" stroke="black" stroke-dasharray="1,5" points="8,-70 8,-195 624,-195 624,-70 8,-70"/>
</g>
<g id="clust5" class="cluster">
<title>cluster_AboutMePageModule_imports</title>
<polygon fill="none" stroke="black" points="298,-78 298,-130 616,-130 616,-78 298,-78"/>
</g>
<g id="clust2" class="cluster">
<title>cluster_AboutMePageModule_declarations</title>
<polygon fill="none" stroke="black" points="16,-78 16,-130 290,-130 290,-78 16,-78"/>
</g>
<!-- AboutMePage -->
<g id="node1" class="node">
<title>AboutMePage</title>
<polygon fill="#ffffb3" stroke="black" points="282.37,-122 185.63,-122 185.63,-86 282.37,-86 282.37,-122"/>
<text text-anchor="middle" x="234" y="-99.8" font-family="Times,serif" font-size="14.00">AboutMePage</text>
</g>
<!-- AboutMePageModule -->
<g id="node3" class="node">
<title>AboutMePageModule</title>
<polygon fill="#8dd3c7" stroke="black" points="364.42,-187 361.42,-191 340.42,-191 337.42,-187 223.58,-187 223.58,-151 364.42,-151 364.42,-187"/>
<text text-anchor="middle" x="294" y="-164.8" font-family="Times,serif" font-size="14.00">AboutMePageModule</text>
</g>
<!-- AboutMePage&#45;&gt;AboutMePageModule -->
<g id="edge1" class="edge">
<title>AboutMePage&#45;&gt;AboutMePageModule</title>
<path fill="none" stroke="black" d="M253.11,-122.11C253.11,-122.11 253.11,-140.99 253.11,-140.99"/>
<polygon fill="black" stroke="black" points="249.61,-140.99 253.11,-150.99 256.61,-140.99 249.61,-140.99"/>
</g>
<!-- CardAboutComponent -->
<g id="node2" class="node">
<title>CardAboutComponent</title>
<polygon fill="#ffffb3" stroke="black" points="167.54,-122 24.46,-122 24.46,-86 167.54,-86 167.54,-122"/>
<text text-anchor="middle" x="96" y="-99.8" font-family="Times,serif" font-size="14.00">CardAboutComponent</text>
</g>
<!-- CardAboutComponent&#45;&gt;AboutMePageModule -->
<g id="edge2" class="edge">
<title>CardAboutComponent&#45;&gt;AboutMePageModule</title>
<path fill="none" stroke="black" d="M96,-122.11C96,-141.34 96,-169 96,-169 96,-169 213.64,-169 213.64,-169"/>
<polygon fill="black" stroke="black" points="213.64,-172.5 223.64,-169 213.64,-165.5 213.64,-172.5"/>
</g>
<!-- AboutMePageRoutingModule -->
<g id="node4" class="node">
<title>AboutMePageRoutingModule</title>
<polygon fill="#8dd3c7" stroke="black" points="607.54,-122 604.54,-126 583.54,-126 580.54,-122 422.46,-122 422.46,-86 607.54,-86 607.54,-122"/>
<text text-anchor="middle" x="515" y="-99.8" font-family="Times,serif" font-size="14.00">AboutMePageRoutingModule</text>
</g>
<!-- AboutMePageRoutingModule&#45;&gt;AboutMePageModule -->
<g id="edge3" class="edge">
<title>AboutMePageRoutingModule&#45;&gt;AboutMePageModule</title>
<path fill="none" stroke="black" d="M515,-122.11C515,-141.34 515,-169 515,-169 515,-169 374.23,-169 374.23,-169"/>
<polygon fill="black" stroke="black" points="374.23,-165.5 364.23,-169 374.23,-172.5 374.23,-165.5"/>
</g>
<!-- SharedModule -->
<g id="node5" class="node">
<title>SharedModule</title>
<polygon fill="#8dd3c7" stroke="black" points="404.42,-122 401.42,-126 380.42,-126 377.42,-122 305.58,-122 305.58,-86 404.42,-86 404.42,-122"/>
<text text-anchor="middle" x="355" y="-99.8" font-family="Times,serif" font-size="14.00">SharedModule</text>
</g>
<!-- SharedModule&#45;&gt;AboutMePageModule -->
<g id="edge4" class="edge">
<title>SharedModule&#45;&gt;AboutMePageModule</title>
<path fill="none" stroke="black" d="M335,-122.11C335,-122.11 335,-140.99 335,-140.99"/>
<polygon fill="black" stroke="black" points="331.5,-140.99 335,-150.99 338.5,-140.99 331.5,-140.99"/>
</g>
</g>
</svg>
