<?xml version="1.0" encoding="UTF-8" standalone="no"?>
<!DOCTYPE svg PUBLIC "-//W3C//DTD SVG 1.1//EN"
 "http://www.w3.org/Graphics/SVG/1.1/DTD/svg11.dtd">
<!-- Generated by graphviz version 2.47.0 (20210316.0004)
 -->
<!-- Title: dependencies Pages: 1 -->
<svg width="640pt" height="211pt"
 viewBox="0.00 0.00 640.00 211.00" xmlns="http://www.w3.org/2000/svg" xmlns:xlink="http://www.w3.org/1999/xlink">
<g id="graph0" class="graph" transform="scale(1 1) rotate(0) translate(4 207)">
<title>dependencies</title>
<polygon fill="white" stroke="transparent" points="-4,4 -4,-207 636,-207 636,4 -4,4"/>
<text text-anchor="start" x="295.01" y="-42.4" font-family="Times-12" font-weight="bold" font-size="14.00">Legend</text>
<polygon fill="#ffffb3" stroke="transparent" points="82,-10 82,-30 102,-30 102,-10 82,-10"/>
<text text-anchor="start" x="105.63" y="-15.4" font-family="Times-12" font-size="14.00"> &#160;Declarations</text>
<polygon fill="#8dd3c7" stroke="transparent" points="195,-10 195,-30 215,-30 215,-10 195,-10"/>
<text text-anchor="start" x="218.73" y="-15.4" font-family="Times-12" font-size="14.00"> &#160;Module</text>
<polygon fill="#80b1d3" stroke="transparent" points="281,-10 281,-30 301,-30 301,-10 281,-10"/>
<text text-anchor="start" x="304.78" y="-15.4" font-family="Times-12" font-size="14.00"> &#160;Bootstrap</text>
<polygon fill="#fdb462" stroke="transparent" points="378,-10 378,-30 398,-30 398,-10 378,-10"/>
<text text-anchor="start" x="401.67" y="-15.4" font-family="Times-12" font-size="14.00"> &#160;Providers</text>
<polygon fill="#fb8072" stroke="transparent" points="474,-10 474,-30 494,-30 494,-10 474,-10"/>
<text text-anchor="start" x="497.73" y="-15.4" font-family="Times-12" font-size="14.00"> &#160;Exports</text>
<g id="clust1" class="cluster">
<title>cluster_RegisterPageModule</title>
<polygon fill="none" stroke="black" stroke-dasharray="1,5" points="8,-70 8,-195 624,-195 624,-70 8,-70"/>
</g>
<g id="clust5" class="cluster">
<title>cluster_RegisterPageModule_imports</title>
<polygon fill="none" stroke="black" points="306,-78 306,-130 616,-130 616,-78 306,-78"/>
</g>
<g id="clust2" class="cluster">
<title>cluster_RegisterPageModule_declarations</title>
<polygon fill="none" stroke="black" points="16,-78 16,-130 298,-130 298,-78 16,-78"/>
</g>
<!-- RegisterFormComponent -->
<g id="node1" class="node">
<title>RegisterFormComponent</title>
<polygon fill="#ffffb3" stroke="black" points="290.32,-122 131.68,-122 131.68,-86 290.32,-86 290.32,-122"/>
<text text-anchor="middle" x="211" y="-99.8" font-family="Times,serif" font-size="14.00">RegisterFormComponent</text>
</g>
<!-- RegisterPageModule -->
<g id="node3" class="node">
<title>RegisterPageModule</title>
<polygon fill="#8dd3c7" stroke="black" points="353.91,-187 350.91,-191 329.91,-191 326.91,-187 220.09,-187 220.09,-151 353.91,-151 353.91,-187"/>
<text text-anchor="middle" x="287" y="-164.8" font-family="Times,serif" font-size="14.00">RegisterPageModule</text>
</g>
<!-- RegisterFormComponent&#45;&gt;RegisterPageModule -->
<g id="edge1" class="edge">
<title>RegisterFormComponent&#45;&gt;RegisterPageModule</title>
<path fill="none" stroke="black" d="M255.23,-122.11C255.23,-122.11 255.23,-140.99 255.23,-140.99"/>
<polygon fill="black" stroke="black" points="251.73,-140.99 255.23,-150.99 258.73,-140.99 251.73,-140.99"/>
</g>
<!-- RegisterPage -->
<g id="node2" class="node">
<title>RegisterPage</title>
<polygon fill="#ffffb3" stroke="black" points="113.86,-122 24.14,-122 24.14,-86 113.86,-86 113.86,-122"/>
<text text-anchor="middle" x="69" y="-99.8" font-family="Times,serif" font-size="14.00">RegisterPage</text>
</g>
<!-- RegisterPage&#45;&gt;RegisterPageModule -->
<g id="edge2" class="edge">
<title>RegisterPage&#45;&gt;RegisterPageModule</title>
<path fill="none" stroke="black" d="M69,-122.11C69,-141.34 69,-169 69,-169 69,-169 210.11,-169 210.11,-169"/>
<polygon fill="black" stroke="black" points="210.11,-172.5 220.11,-169 210.11,-165.5 210.11,-172.5"/>
</g>
<!-- RegisterPageRoutingModule -->
<g id="node4" class="node">
<title>RegisterPageRoutingModule</title>
<polygon fill="#8dd3c7" stroke="black" points="608.03,-122 605.03,-126 584.03,-126 581.03,-122 429.97,-122 429.97,-86 608.03,-86 608.03,-122"/>
<text text-anchor="middle" x="519" y="-99.8" font-family="Times,serif" font-size="14.00">RegisterPageRoutingModule</text>
</g>
<!-- RegisterPageRoutingModule&#45;&gt;RegisterPageModule -->
<g id="edge3" class="edge">
<title>RegisterPageRoutingModule&#45;&gt;RegisterPageModule</title>
<path fill="none" stroke="black" d="M519,-122.11C519,-141.34 519,-169 519,-169 519,-169 363.79,-169 363.79,-169"/>
<polygon fill="black" stroke="black" points="363.79,-165.5 353.79,-169 363.79,-172.5 363.79,-165.5"/>
</g>
<!-- SharedModule -->
<g id="node5" class="node">
<title>SharedModule</title>
<polygon fill="#8dd3c7" stroke="black" points="412.42,-122 409.42,-126 388.42,-126 385.42,-122 313.58,-122 313.58,-86 412.42,-86 412.42,-122"/>
<text text-anchor="middle" x="363" y="-99.8" font-family="Times,serif" font-size="14.00">SharedModule</text>
</g>
<!-- SharedModule&#45;&gt;RegisterPageModule -->
<g id="edge4" class="edge">
<title>SharedModule&#45;&gt;RegisterPageModule</title>
<path fill="none" stroke="black" d="M333.75,-122.11C333.75,-122.11 333.75,-140.99 333.75,-140.99"/>
<polygon fill="black" stroke="black" points="330.25,-140.99 333.75,-150.99 337.25,-140.99 330.25,-140.99"/>
</g>
</g>
</svg>
