<?xml version="1.0" encoding="UTF-8" standalone="no"?>
<!DOCTYPE svg PUBLIC "-//W3C//DTD SVG 1.1//EN"
 "http://www.w3.org/Graphics/SVG/1.1/DTD/svg11.dtd">
<!-- Generated by graphviz version 2.47.0 (20210316.0004)
 -->
<!-- Title: dependencies Pages: 1 -->
<svg width="659pt" height="211pt"
 viewBox="0.00 0.00 659.00 211.00" xmlns="http://www.w3.org/2000/svg" xmlns:xlink="http://www.w3.org/1999/xlink">
<g id="graph0" class="graph" transform="scale(1 1) rotate(0) translate(4 207)">
<title>dependencies</title>
<polygon fill="white" stroke="transparent" points="-4,4 -4,-207 655,-207 655,4 -4,4"/>
<text text-anchor="start" x="304.51" y="-42.4" font-family="Times-12" font-weight="bold" font-size="14.00">Legend</text>
<polygon fill="#ffffb3" stroke="transparent" points="91.5,-10 91.5,-30 111.5,-30 111.5,-10 91.5,-10"/>
<text text-anchor="start" x="115.13" y="-15.4" font-family="Times-12" font-size="14.00"> &#160;Declarations</text>
<polygon fill="#8dd3c7" stroke="transparent" points="204.5,-10 204.5,-30 224.5,-30 224.5,-10 204.5,-10"/>
<text text-anchor="start" x="228.23" y="-15.4" font-family="Times-12" font-size="14.00"> &#160;Module</text>
<polygon fill="#80b1d3" stroke="transparent" points="290.5,-10 290.5,-30 310.5,-30 310.5,-10 290.5,-10"/>
<text text-anchor="start" x="314.28" y="-15.4" font-family="Times-12" font-size="14.00"> &#160;Bootstrap</text>
<polygon fill="#fdb462" stroke="transparent" points="387.5,-10 387.5,-30 407.5,-30 407.5,-10 387.5,-10"/>
<text text-anchor="start" x="411.17" y="-15.4" font-family="Times-12" font-size="14.00"> &#160;Providers</text>
<polygon fill="#fb8072" stroke="transparent" points="483.5,-10 483.5,-30 503.5,-30 503.5,-10 483.5,-10"/>
<text text-anchor="start" x="507.23" y="-15.4" font-family="Times-12" font-size="14.00"> &#160;Exports</text>
<g id="clust1" class="cluster">
<title>cluster_VehiclesPageModule</title>
<polygon fill="none" stroke="black" stroke-dasharray="1,5" points="8,-70 8,-195 643,-195 643,-70 8,-70"/>
</g>
<g id="clust5" class="cluster">
<title>cluster_VehiclesPageModule_imports</title>
<polygon fill="none" stroke="black" points="322,-78 322,-130 635,-130 635,-78 322,-78"/>
</g>
<g id="clust2" class="cluster">
<title>cluster_VehiclesPageModule_declarations</title>
<polygon fill="none" stroke="black" points="16,-78 16,-130 314,-130 314,-78 16,-78"/>
</g>
<!-- VehicleItemListComponent -->
<g id="node1" class="node">
<title>VehicleItemListComponent</title>
<polygon fill="#ffffb3" stroke="black" points="306.3,-122 133.7,-122 133.7,-86 306.3,-86 306.3,-122"/>
<text text-anchor="middle" x="220" y="-99.8" font-family="Times,serif" font-size="14.00">VehicleItemListComponent</text>
</g>
<!-- VehiclesPageModule -->
<g id="node3" class="node">
<title>VehiclesPageModule</title>
<polygon fill="#8dd3c7" stroke="black" points="387.74,-187 384.74,-191 363.74,-191 360.74,-187 252.26,-187 252.26,-151 387.74,-151 387.74,-187"/>
<text text-anchor="middle" x="320" y="-164.8" font-family="Times,serif" font-size="14.00">VehiclesPageModule</text>
</g>
<!-- VehicleItemListComponent&#45;&gt;VehiclesPageModule -->
<g id="edge1" class="edge">
<title>VehicleItemListComponent&#45;&gt;VehiclesPageModule</title>
<path fill="none" stroke="black" d="M279.14,-122.11C279.14,-122.11 279.14,-140.99 279.14,-140.99"/>
<polygon fill="black" stroke="black" points="275.64,-140.99 279.14,-150.99 282.64,-140.99 275.64,-140.99"/>
</g>
<!-- VehiclesPage -->
<g id="node2" class="node">
<title>VehiclesPage</title>
<polygon fill="#ffffb3" stroke="black" points="116.19,-122 23.81,-122 23.81,-86 116.19,-86 116.19,-122"/>
<text text-anchor="middle" x="70" y="-99.8" font-family="Times,serif" font-size="14.00">VehiclesPage</text>
</g>
<!-- VehiclesPage&#45;&gt;VehiclesPageModule -->
<g id="edge2" class="edge">
<title>VehiclesPage&#45;&gt;VehiclesPageModule</title>
<path fill="none" stroke="black" d="M70,-122.11C70,-141.34 70,-169 70,-169 70,-169 242.02,-169 242.02,-169"/>
<polygon fill="black" stroke="black" points="242.02,-172.5 252.02,-169 242.02,-165.5 242.02,-172.5"/>
</g>
<!-- SharedModule -->
<g id="node4" class="node">
<title>SharedModule</title>
<polygon fill="#8dd3c7" stroke="black" points="627.42,-122 624.42,-126 603.42,-126 600.42,-122 528.58,-122 528.58,-86 627.42,-86 627.42,-122"/>
<text text-anchor="middle" x="578" y="-99.8" font-family="Times,serif" font-size="14.00">SharedModule</text>
</g>
<!-- SharedModule&#45;&gt;VehiclesPageModule -->
<g id="edge3" class="edge">
<title>SharedModule&#45;&gt;VehiclesPageModule</title>
<path fill="none" stroke="black" d="M578,-122.11C578,-141.34 578,-169 578,-169 578,-169 397.79,-169 397.79,-169"/>
<polygon fill="black" stroke="black" points="397.79,-165.5 387.79,-169 397.79,-172.5 397.79,-165.5"/>
</g>
<!-- VehiclesPageRoutingModule -->
<g id="node5" class="node">
<title>VehiclesPageRoutingModule</title>
<polygon fill="#8dd3c7" stroke="black" points="510.36,-122 507.36,-126 486.36,-126 483.36,-122 329.64,-122 329.64,-86 510.36,-86 510.36,-122"/>
<text text-anchor="middle" x="420" y="-99.8" font-family="Times,serif" font-size="14.00">VehiclesPageRoutingModule</text>
</g>
<!-- VehiclesPageRoutingModule&#45;&gt;VehiclesPageModule -->
<g id="edge4" class="edge">
<title>VehiclesPageRoutingModule&#45;&gt;VehiclesPageModule</title>
<path fill="none" stroke="black" d="M358.72,-122.11C358.72,-122.11 358.72,-140.99 358.72,-140.99"/>
<polygon fill="black" stroke="black" points="355.22,-140.99 358.72,-150.99 362.22,-140.99 355.22,-140.99"/>
</g>
</g>
</svg>
