<?xml version="1.0" encoding="UTF-8" standalone="no"?>
<!DOCTYPE svg PUBLIC "-//W3C//DTD SVG 1.1//EN"
 "http://www.w3.org/Graphics/SVG/1.1/DTD/svg11.dtd">
<!-- Generated by graphviz version 2.47.0 (20210316.0004)
 -->
<!-- Title: dependencies Pages: 1 -->
<svg width="835pt" height="211pt"
 viewBox="0.00 0.00 835.00 211.00" xmlns="http://www.w3.org/2000/svg" xmlns:xlink="http://www.w3.org/1999/xlink">
<g id="graph0" class="graph" transform="scale(1 1) rotate(0) translate(4 207)">
<title>dependencies</title>
<polygon fill="white" stroke="transparent" points="-4,4 -4,-207 831,-207 831,4 -4,4"/>
<text text-anchor="start" x="392.51" y="-42.4" font-family="Times-12" font-weight="bold" font-size="14.00">Legend</text>
<polygon fill="#ffffb3" stroke="transparent" points="179.5,-10 179.5,-30 199.5,-30 199.5,-10 179.5,-10"/>
<text text-anchor="start" x="203.13" y="-15.4" font-family="Times-12" font-size="14.00"> &#160;Declarations</text>
<polygon fill="#8dd3c7" stroke="transparent" points="292.5,-10 292.5,-30 312.5,-30 312.5,-10 292.5,-10"/>
<text text-anchor="start" x="316.23" y="-15.4" font-family="Times-12" font-size="14.00"> &#160;Module</text>
<polygon fill="#80b1d3" stroke="transparent" points="378.5,-10 378.5,-30 398.5,-30 398.5,-10 378.5,-10"/>
<text text-anchor="start" x="402.28" y="-15.4" font-family="Times-12" font-size="14.00"> &#160;Bootstrap</text>
<polygon fill="#fdb462" stroke="transparent" points="475.5,-10 475.5,-30 495.5,-30 495.5,-10 475.5,-10"/>
<text text-anchor="start" x="499.17" y="-15.4" font-family="Times-12" font-size="14.00"> &#160;Providers</text>
<polygon fill="#fb8072" stroke="transparent" points="571.5,-10 571.5,-30 591.5,-30 591.5,-10 571.5,-10"/>
<text text-anchor="start" x="595.23" y="-15.4" font-family="Times-12" font-size="14.00"> &#160;Exports</text>
<g id="clust1" class="cluster">
<title>cluster_ProvidersPageModule</title>
<polygon fill="none" stroke="black" stroke-dasharray="1,5" points="8,-70 8,-195 819,-195 819,-70 8,-70"/>
</g>
<g id="clust2" class="cluster">
<title>cluster_ProvidersPageModule_declarations</title>
<polygon fill="none" stroke="black" points="342,-78 342,-130 811,-130 811,-78 342,-78"/>
</g>
<g id="clust6" class="cluster">
<title>cluster_ProvidersPageModule_imports</title>
<polygon fill="none" stroke="black" points="16,-78 16,-130 334,-130 334,-78 16,-78"/>
</g>
<!-- ProviderItemComponent -->
<g id="node1" class="node">
<title>ProviderItemComponent</title>
<polygon fill="#ffffb3" stroke="black" points="802.7,-122 647.3,-122 647.3,-86 802.7,-86 802.7,-122"/>
<text text-anchor="middle" x="725" y="-99.8" font-family="Times,serif" font-size="14.00">ProviderItemComponent</text>
</g>
<!-- ProvidersPageModule -->
<g id="node4" class="node">
<title>ProvidersPageModule</title>
<polygon fill="#8dd3c7" stroke="black" points="468.42,-187 465.42,-191 444.42,-191 441.42,-187 327.58,-187 327.58,-151 468.42,-151 468.42,-187"/>
<text text-anchor="middle" x="398" y="-164.8" font-family="Times,serif" font-size="14.00">ProvidersPageModule</text>
</g>
<!-- ProviderItemComponent&#45;&gt;ProvidersPageModule -->
<g id="edge1" class="edge">
<title>ProviderItemComponent&#45;&gt;ProvidersPageModule</title>
<path fill="none" stroke="black" d="M725,-122.11C725,-141.34 725,-169 725,-169 725,-169 478.55,-169 478.55,-169"/>
<polygon fill="black" stroke="black" points="478.55,-165.5 468.55,-169 478.55,-172.5 478.55,-165.5"/>
</g>
<!-- ProvidersFormComponent -->
<g id="node2" class="node">
<title>ProvidersFormComponent</title>
<polygon fill="#ffffb3" stroke="black" points="629.82,-122 464.18,-122 464.18,-86 629.82,-86 629.82,-122"/>
<text text-anchor="middle" x="547" y="-99.8" font-family="Times,serif" font-size="14.00">ProvidersFormComponent</text>
</g>
<!-- ProvidersFormComponent&#45;&gt;ProvidersPageModule -->
<g id="edge2" class="edge">
<title>ProvidersFormComponent&#45;&gt;ProvidersPageModule</title>
<path fill="none" stroke="black" d="M464.17,-104C458.74,-104 455.39,-104 455.39,-104 455.39,-104 455.39,-140.89 455.39,-140.89"/>
<polygon fill="black" stroke="black" points="451.89,-140.89 455.39,-150.89 458.89,-140.89 451.89,-140.89"/>
</g>
<!-- ProvidersPage -->
<g id="node3" class="node">
<title>ProvidersPage</title>
<polygon fill="#ffffb3" stroke="black" points="446.37,-122 349.63,-122 349.63,-86 446.37,-86 446.37,-122"/>
<text text-anchor="middle" x="398" y="-99.8" font-family="Times,serif" font-size="14.00">ProvidersPage</text>
</g>
<!-- ProvidersPage&#45;&gt;ProvidersPageModule -->
<g id="edge3" class="edge">
<title>ProvidersPage&#45;&gt;ProvidersPageModule</title>
<path fill="none" stroke="black" d="M398,-122.11C398,-122.11 398,-140.99 398,-140.99"/>
<polygon fill="black" stroke="black" points="394.5,-140.99 398,-150.99 401.5,-140.99 394.5,-140.99"/>
</g>
<!-- ProvidersPageRoutingModule -->
<g id="node5" class="node">
<title>ProvidersPageRoutingModule</title>
<polygon fill="#8dd3c7" stroke="black" points="325.53,-122 322.53,-126 301.53,-126 298.53,-122 140.47,-122 140.47,-86 325.53,-86 325.53,-122"/>
<text text-anchor="middle" x="233" y="-99.8" font-family="Times,serif" font-size="14.00">ProvidersPageRoutingModule</text>
</g>
<!-- ProvidersPageRoutingModule&#45;&gt;ProvidersPageModule -->
<g id="edge4" class="edge">
<title>ProvidersPageRoutingModule&#45;&gt;ProvidersPageModule</title>
<path fill="none" stroke="black" d="M325.72,-104C333.62,-104 338.68,-104 338.68,-104 338.68,-104 338.68,-140.89 338.68,-140.89"/>
<polygon fill="black" stroke="black" points="335.18,-140.89 338.68,-150.89 342.18,-140.89 335.18,-140.89"/>
</g>
<!-- SharedModule -->
<g id="node6" class="node">
<title>SharedModule</title>
<polygon fill="#8dd3c7" stroke="black" points="122.42,-122 119.42,-126 98.42,-126 95.42,-122 23.58,-122 23.58,-86 122.42,-86 122.42,-122"/>
<text text-anchor="middle" x="73" y="-99.8" font-family="Times,serif" font-size="14.00">SharedModule</text>
</g>
<!-- SharedModule&#45;&gt;ProvidersPageModule -->
<g id="edge5" class="edge">
<title>SharedModule&#45;&gt;ProvidersPageModule</title>
<path fill="none" stroke="black" d="M73,-122.11C73,-141.34 73,-169 73,-169 73,-169 317.48,-169 317.48,-169"/>
<polygon fill="black" stroke="black" points="317.48,-172.5 327.48,-169 317.48,-165.5 317.48,-172.5"/>
</g>
</g>
</svg>
